<?xml version="1.0" encoding="utf-8"?><!--Generator: Adobe Illustrator 18.1.1, SVG Export Plug-In . SVG Version: 6.00 Build 0)--><svg xmlns="http://www.w3.org/2000/svg" xmlns:xlink="http://www.w3.org/1999/xlink" id="Reference" width="512px" height="512px" x="0px" y="0px" enable-background="new 0 0 512 512" version="1.1" viewBox="0 0 512 512" xml:space="preserve"><path fill="#00529C" d="M512,472c0,22.1-17.9,40-40,40H40c-22.1,0-40-17.9-40-40V40C0,17.9,17.9,0,40,0h432c22.1,0,40,17.9,40,40
	V472z"/><path fill="#FFFFFF" d="M295.6,117.1c-77.3,0-139.9,62.6-139.9,139.9c0,77.3,62.6,139.9,139.9,139.9c77.3,0,139.9-62.6,139.9-139.9
	C435.5,179.7,372.8,117.1,295.6,117.1z M296.2,364.7c-59.8,0-108.2-48.4-108.2-108.2c0-59.8,48.4-108.2,108.2-108.2
	c59.8,0,108.2,48.4,108.2,108.2C404.4,316.3,356,364.7,296.2,364.7z"/><path fill="#FFFFFF" d="M392.1,191.4c0,0-85.3-20.3-143.7-18.8c-58.4,1.4-98,5.1-99.4,9.4c-1.4,4.3,1.3,4,6.6,8.1
	c5.3,4.1,11,10.7,11,10.7s-13.3,2.5-30.6-3.6c-17.3-6.1-28.6-10.7-38.9-10.2c-10.4,0.5-28.8,8.2-34.7,16.8c-4.4,6.4-2.2,14,0.5,15.1
	c1.6,0.7,2.9-4.1,4.7-4.4c4.7-0.9,28.7,11.9,38,17.9c3.1,2,6.6,4.1,6.6,12.4c0,8.3,0.9,12.4,5.7,18.2c6.7,8.3,15.1,18.5,32,27.8
	c17,9.3,244.7,95,244.7,95S263.9,329.3,245,316.4c-18.8-12.9-50.7-36.7-33.3-69.9C229.2,213.4,324.4,187.4,392.1,191.4z"/><path fill="#FFFFFF" d="M219,248.4c0,0,12.9,17.6,26.8,26.7c13.9,9.1,19.3,11.3,35.4,15.2c18.8,4.6,29.9,5,45.2,2.4
	c29.2-5,42.3-12.1,49.9-15.2c1.3-0.5-13.7,32.7-30.8,44.8c-9.8,7-18.2,11.9-35.3,14c-17.1,2-34.5-4.4-46.2-10.5
	c-11.6-6.1-25.4-15.9-34.4-25.1c-9-9.3-20.3-26.1-12.3-48.2C217.8,251.3,219,248.4,219,248.4z"/></svg>